<?xml version="1.0" encoding="utf-8"?>
<!-- Generator: Adobe Illustrator 25.0.0, SVG Export Plug-In . SVG Version: 6.00 Build 0)  -->
<svg version="1.1" id="RF" xmlns="http://www.w3.org/2000/svg" xmlns:xlink="http://www.w3.org/1999/xlink" x="0px" y="0px"
	 viewBox="0 0 792 1872" style="enable-background:new 0 0 792 1872;" xml:space="preserve">
<style type="text/css">
	.st0{fill:#445B55;}
</style>
<path class="st0" d="M521.9,991l73-374.3l22.4,85.7l39-207.6l29.5,151.9l20.8-237l34,111l18.5-70.8l32.8,79.4v524.3
	C792,1053.5,506.6,1024.8,521.9,991z"/>
<polyline class="st0" points="700.2,783.9 667.7,810.6 711,810.6 667.7,831.4 712.3,834 648.8,871.2 666.7,867.7 638.2,904 
	667.7,894.3 630.6,945.1 689.5,945.1 610.2,968.1 638.2,972.7 603.9,1018.5 630.6,1010.6 594.9,1068.2 624.2,1058 594.9,1107 
	624.2,1089.6 594.9,1128.3 717.1,1122 "/>
<polyline class="st0" points="762.7,800.3 736.1,827 771.4,827 736.1,847.8 772.5,850.4 720.8,887.6 735.4,884.2 712.2,920.5 
	736.2,910.7 706,961.5 754,961.5 689.3,984.5 712.2,989.2 684.2,1035 706,1027.1 676.9,1084.6 700.7,1074.5 676.9,1123.4 
	700.7,1106 676.9,1144.7 776.5,1138.4 "/>
<polygon class="st0" points="792.1,1172.7 747.8,1175.5 771.6,1136.9 747.8,1154.2 771.6,1105.3 792.1,1061.3 "/>
<polyline class="st0" points="619.6,739.9 593.1,766.6 628.4,766.6 593.1,787.5 629.4,790.1 577.7,827.2 592.3,823.8 569.1,860.1 
	593.1,850.3 562.9,901.2 610.9,901.2 546.2,924.1 569.1,928.8 541.1,974.6 562.9,966.7 533.8,1024.2 557.7,1014.1 533.8,1063 
	557.7,1045.6 533.8,1084.3 633.4,1078 "/>
<path class="st0" d="M591,673.3c-13.7,13.8-27.4,27.6-41.1,41.5h35.3l-35.3,20.8l36.4,2.6l-51.8,37.1l14.6-3.4L526,808.2l24-9.7
	l-30.2,50.8h48l-64.7,23l22.9,4.7l-28,45.8l21.8-7.9l-29.1,57.5l23.8-10.1l-23.8,49l23.8-17.4l-23.8,38.7
	c33.2-2.1,66.4-4.2,99.6-6.3"/>
<polygon class="st0" points="754.8,1037.3 792,1048.3 792,1107.5 754.8,1105.9 "/>
</svg>
