<?xml version="1.0" encoding="utf-8"?>
<!-- Generator: Adobe Illustrator 25.0.0, SVG Export Plug-In . SVG Version: 6.00 Build 0)  -->
<svg version="1.1" id="RM" xmlns="http://www.w3.org/2000/svg" xmlns:xlink="http://www.w3.org/1999/xlink" x="0px" y="0px"
	 viewBox="0 0 792 1872" style="enable-background:new 0 0 792 1872;" xml:space="preserve">
<style type="text/css">
	.st0{fill:#5F5B55;}
</style>
<path class="st0" d="M582.5,817.8l12.4-254.2l-29.7,43.2l-12.2-84.1l-25.6,104.5l-10.3-58.8l-26.9,101.8l-6-58.6L464,642.9v-47.3
	l-18.9,29.3L429,602.1l-25.6,57.7l-7.7-91.2l-30.1,81.1c-1.9,3-5,8.8-5.6,16.8c-0.2,3.2-0.4,11.4,3.9,19.2
	c5,9.1,13.6,13.1,17.7,15.2c15.7,8.1,27.1,22.7,40.8,33.9c36.8,30,55.2,45,55.5,45.2C498.1,794.3,530.7,811.4,582.5,817.8z"/>
</svg>
