<svg id="RightMountain" xmlns="http://www.w3.org/2000/svg" viewBox="0 0 792 1872"><defs><style>.cls-1{fill:#c8c4c9;}.cls-2{fill:#fff;}</style></defs><polygon class="cls-1" points="375.55 574.65 422.7 548.05 475.73 540.9 510.17 512.77 546.17 494.95 572.78 440.06 627.56 386.19 694.97 315.8 737.13 298.06 791.66 218.36 791.66 574.65 375.55 574.65"/><polygon class="cls-2" points="740.68 319.93 704.4 331.49 661.94 378.31 740.68 319.93"/><polygon class="cls-2" points="706.72 396.51 684.33 442.11 665.03 451.94 689.72 491.37 682.79 455.85 701.31 443.94 706.72 396.51"/><polygon class="cls-2" points="768.47 349.12 753.03 396.51 749.94 365.42 768.47 349.12"/><polygon class="cls-2" points="778.77 278.83 791.66 252.56 791.66 275.76 778.77 278.83"/><polygon class="cls-2" points="617.37 451.86 594.94 484.19 594.94 529.05 611.25 545.81 606.15 523.61 603.1 486.98 617.37 451.86"/></svg>