<svg xmlns="http://www.w3.org/2000/svg" xmlns:xlink="http://www.w3.org/1999/xlink" viewBox="0 0 792 1872"><defs><style>.cls-1{fill:url(#linear-gradient);}.cls-2{fill:url(#linear-gradient-2);}.cls-3{fill:#446d55;}.cls-4{clip-path:url(#clip-path);}.cls-5{fill:#3c4e65;}.cls-5,.cls-6,.cls-7,.cls-8,.cls-9{opacity:0.63;}.cls-6{fill:#5f5b73;}.cls-7{fill:#6c799d;}.cls-8{fill:#c8c4c9;}.cls-9{fill:#5f5b55;}.cls-10{fill:#8ecaed;}.cls-11{fill:#86caed;}.cls-12{fill:#89b8e0;}.cls-13{fill:#c8bad0;}.cls-14{fill:#bfbad0;}.cls-15{fill:#e4bad0;}.cls-16{fill:#7dcaed;}</style><linearGradient id="linear-gradient" x1="396" y1="575.15" x2="396" y2="1224" gradientUnits="userSpaceOnUse"><stop offset="0" stop-color="#f59199"/><stop offset="0.07" stop-color="#e49ca9"/><stop offset="0.2" stop-color="#caacc1"/><stop offset="0.34" stop-color="#b5bad5"/><stop offset="0.5" stop-color="#a6c3e3"/><stop offset="0.7" stop-color="#9ec8eb"/><stop offset="1" stop-color="#9bcaed"/></linearGradient><linearGradient id="linear-gradient-2" x1="396" y1="817.39" x2="396" y2="-0.29" gradientUnits="userSpaceOnUse"><stop offset="0" stop-color="#f59199"/><stop offset="0.2" stop-color="#e999a5"/><stop offset="0.58" stop-color="#c8aec3"/><stop offset="1" stop-color="#9bcaed"/></linearGradient><clipPath id="clip-path"><path class="cls-1" d="M0,1034S351.07,831.15,337.34,787.11s-87.25-63.49-86.06-110.56,53.37-100.67,192.49-101.4c0,0-100,42.45-95.75,78.79S545.59,803.39,545.07,843.09s-55.84,155.15-18.86,171.24S792,1076,792,1076v148H0Z"/></clipPath></defs><g id="Backround"><rect class="cls-2" x="-0.13" y="-0.29" width="792.27" height="817.68"/><rect class="cls-3" y="575.15" width="792" height="648.85"/></g><g id="Water"><path class="cls-1" d="M0,1034S351.07,831.15,337.34,787.11s-87.25-63.49-86.06-110.56,53.37-100.67,192.49-101.4c0,0-100,42.45-95.75,78.79S545.59,803.39,545.07,843.09s-55.84,155.15-18.86,171.24S792,1076,792,1076v148H0Z"/><g class="cls-4"><path class="cls-5" d="M318.09,805.8l-7.85,103.05-24.7,3L270.69,961,207.17,947.3l36,71.4-50.34,1.53L185.13,1048l-84.3-28.91,31.55,45.52-36.91.62,3.27,50.11-61.65-14.09,23.25,61.64-48.4-3.25-112.8-162.76S277.86,805,318.09,805.8Z"/><path class="cls-5" d="M522,1006l81.15,104.09,24.93-23.82L671.43,1144l32.76-42.24,23.16,65.9,37.74-30.87,20.59,19.7,36.44-22.08V988.61S505,996.6,522,1006Z"/><path class="cls-6" d="M590.26,859.12l-37.94,58.24-19.78-38.78-28,2.25-3.93-45.44L479.25,835l-5.64-46.25L456.45,793,443.31,766.2,434,774.63l-12.23-25-19.88-12.89-13.1-37.11-25.16,8.21-12.77-46S402.07,689.07,590.26,859.12Z"/><path class="cls-7" d="M-1.26,636.5l42.89,14S72,663.49,72,671.65l53.09,17.24L161,691.62,190.55,707l13.14-4.23,17.5-20,19,12.52,36.73-19.62,49.88-4L387,659.25,428.21,632l57-6.95,75-16.49,38.58-24.65,73.24-8.42H-1.26Z"/><polygon class="cls-8" points="190.56 707.04 190.56 689.86 177.62 678.41 204.07 657.65 238.36 647.83 238.36 639.42 223.66 622.31 266.76 605.48 288.31 585.28 352.97 575.52 672.06 575.52 598.82 583.94 560.24 608.59 485.24 625.08 428.21 632.03 387.01 659.25 326.81 671.77 276.93 675.74 240.2 695.36 221.19 682.84 203.69 702.81 190.56 707.04"/><path class="cls-8" d="M90.34,651.27c15.15.63,12.07,20.66,12.07,20.66L137,683.32l39.78,2.09-31.4-4.82-27.22-9.86Z"/><polygon class="cls-8" points="204.75 650.76 216.94 645.95 220.12 631.8 206.34 635.59 212.44 642.63 204.75 650.76"/><polygon class="cls-7" points="247.88 671.2 298.17 667 343.18 657.41 366.21 638.47 333.76 652.31 295.03 662.5 247.88 671.2"/><polygon class="cls-7" points="414.68 624.08 465.97 618.09 525.64 602.5 540.29 595.01 498.42 598.9 470.16 612.99 414.68 624.08"/><polygon class="cls-7" points="197.47 685.41 209.92 680.19 209.92 673.6 197.47 685.41"/><path class="cls-9" d="M361.35,578.5l-1.11,12.67L347.45,593l-3.34,17.33-16-5.29-8.78,12.86-7.56-.48-7.45,6.68L291,623.06l4.84,21.05L274,634.86l1.22-26.11s39.36-8.11,97.2-41.46"/></g><path class="cls-10" d="M38.69,1058.22s40.46-2,57.58-14.18,38.83-7.7,38.83-7.7,23.69,6.89,33.56,5.27S194,1038,194,1038s22.38-.4,37.85,10.94,44.43,9.32,44.43,9.32-36.2,4.45-51,3.64-40.15,4.86-40.15,4.86a58.65,58.65,0,0,1-27.64-7.29c-13.5-7.7-39.49,1.62-39.49,1.62s-14.48,4-26.66-.81S38.69,1058.22,38.69,1058.22Z"/><path class="cls-11" d="M479.09,1108.65s28.53-1.16,40.59-8.12,27.37-4.41,27.37-4.41,16.71,3.94,23.67,3,17.86-2.09,17.86-2.09,15.77-.23,26.68,6.26,31.32,5.34,31.32,5.34-25.52,2.55-36,2.08-28.3,2.79-28.3,2.79a49.3,49.3,0,0,1-19.49-4.18c-9.51-4.4-27.84.93-27.84.93s-10.21,2.32-18.79-.46S479.09,1108.65,479.09,1108.65Z"/><path class="cls-12" d="M128.2,945.29s46.56-1.1,66.25-7.68,44.68-4.17,44.68-4.17,27.26,3.73,38.62,2.86,29.16-2,29.16-2,25.74-.22,43.54,5.92,51.12,5,51.12,5-41.65,2.41-58.69,2-46.2,2.63-46.2,2.63A133.31,133.31,0,0,1,264.89,946c-15.54-4.17-45.45.87-45.45.87s-16.66,2.2-30.67-.44S128.2,945.29,128.2,945.29Z"/><path class="cls-12" d="M330.43,1019.28s45.81,1.73,65.19,12,44,6.53,44,6.53,26.83-5.85,38-4.47,28.69,3.09,28.69,3.09,25.34.35,42.85-9.28,50.31-7.92,50.31-7.92-41-3.77-57.76-3.09-45.46-4.12-45.46-4.12-16-.35-31.29,6.19-44.73-1.38-44.73-1.38-16.39-3.44-30.18.69S330.43,1019.28,330.43,1019.28Z"/><path class="cls-13" d="M274.54,787.57s18.78-.76,26.73-5.34,18-2.91,18-2.91,11,2.6,15.59,2,11.76-1.38,11.76-1.38,10.39-.15,17.57,4.13,20.62,3.51,20.62,3.51S368,789.25,361.15,789s-18.64,1.83-18.64,1.83A32.45,32.45,0,0,1,329.69,788c-6.27-2.9-18.34.61-18.34.61s-6.72,1.53-12.37-.3S274.54,787.57,274.54,787.57Z"/><path class="cls-14" d="M395.57,823.54s25.14.76,35.77,5.34,24.13,2.91,24.13,2.91,14.72-2.6,20.85-2,15.74,1.38,15.74,1.38,13.9.15,23.51-4.13,27.6-3.51,27.6-3.51-22.49-1.68-31.69-1.38-24.94-1.83-24.94-1.83a56.65,56.65,0,0,0-17.17,2.75c-8.38,2.9-24.54-.61-24.54-.61s-9-1.53-16.56.3S395.57,823.54,395.57,823.54Z"/><path class="cls-15" d="M266.41,701.57s18.78-1.34,26.72-9.35a19.18,19.18,0,0,1,18-5.07s11,4.54,15.58,3.47,11.76-2.4,11.76-2.4,10.39-.27,17.57,7.21,20.62,6.14,20.62,6.14-16.8,2.94-23.68,2.4-18.63,3.21-18.63,3.21a20.87,20.87,0,0,1-12.83-4.81c-6.27-5.07-18.34,1.07-18.34,1.07s-6.72,2.67-12.37-.53S266.41,701.57,266.41,701.57Z"/><path class="cls-13" d="M363.06,755.85s15.3-.62,21.78-4.35,14.69-2.37,14.69-2.37,9,2.12,12.69,1.62,9.59-1.12,9.59-1.12,8.46-.13,14.31,3.36,16.81,2.86,16.81,2.86-13.7,1.37-19.3,1.12-15.18,1.5-15.18,1.5A26.56,26.56,0,0,1,408,756.23c-5.1-2.37-14.94.49-14.94.49s-5.47,1.25-10.08-.25S363.06,755.85,363.06,755.85Z"/><path class="cls-16" d="M58.83,1178.2s49.74,3,70.78,21.25S177.35,1211,177.35,1211s29.12-10.31,41.26-7.88,31.15,5.46,31.15,5.46,27.51.6,46.53-16.38,54.61-14,54.61-14-44.5-6.66-62.71-5.45-49.35-7.28-49.35-7.28a61.6,61.6,0,0,0-34,10.92c-16.6,11.53-48.56-2.43-48.56-2.43s-17.8-6.06-32.77,1.22S58.83,1178.2,58.83,1178.2Z"/></g></svg>