<svg id="LeftMountain" xmlns="http://www.w3.org/2000/svg" viewBox="0 0 792 1872"><defs><style>.cls-1{fill:#6c799d;}.cls-2{fill:#c8c4c9;}</style></defs><path class="cls-1" d="M-1.26,394.23l42.89-41.29S72,314.53,72,290.42l53.09-50.92,35.91-8,29.57-45.56,13.14,12.51,17.5,59,19-37,36.73,58,49.88,11.72L387,327l41.2,80.38,57,20.54,75,48.68,38.58,72.8,73.24,24.87H-1.26Z"/><polygon class="cls-2" points="190.56 185.91 190.56 236.65 177.62 270.47 204.07 331.77 238.36 360.76 238.36 385.61 223.66 436.14 266.76 485.84 288.31 545.49 352.97 574.31 672.06 574.31 598.82 549.44 560.24 476.64 485.24 427.96 428.21 407.42 387.01 327.04 326.81 290.07 276.93 278.35 240.2 220.4 221.19 257.37 203.69 198.42 190.56 185.91"/><path class="cls-2" d="M90.34,350.6c15.15-1.86,12.07-61,12.07-61L137,256l39.78-6.19L145.33,264l-27.22,29.14Z"/><path class="cls-2" d="M101.54,416.62a72.17,72.17,0,0,1-32.18,22c-20.93,7.08-39.77,56.66-39.77,56.66Z"/><polygon class="cls-2" points="152.39 428.75 172.24 441.93 184.81 473.82 152.39 428.75"/><polygon class="cls-2" points="156.31 555.2 179.92 542 195.62 514.56 224.84 504.38 253.2 518.1 224.84 519.87 204.75 535.8 156.31 555.2"/><polygon class="cls-2" points="204.75 352.11 216.94 366.33 220.12 408.11 206.34 396.91 212.44 376.11 204.75 352.11"/><polygon class="cls-1" points="247.88 291.76 298.17 304.16 343.18 332.48 366.21 388.42 333.76 347.53 295.03 317.44 247.88 291.76"/><polygon class="cls-1" points="414.68 430.89 465.97 448.6 525.64 494.63 540.29 516.76 498.42 505.25 470.16 463.64 414.68 430.89"/><polygon class="cls-1" points="329.12 428 307.05 460.16 313.07 499.46 329.12 428"/><polygon class="cls-1" points="197.47 249.78 209.92 265.22 209.92 284.68 197.47 249.78"/></svg>