<?xml version="1.0" encoding="utf-8"?>
<!-- Generator: Adobe Illustrator 25.0.0, SVG Export Plug-In . SVG Version: 6.00 Build 0)  -->
<svg version="1.1" id="FL" xmlns="http://www.w3.org/2000/svg" xmlns:xlink="http://www.w3.org/1999/xlink" x="0px" y="0px"
	 viewBox="0 0 792 1872" style="enable-background:new 0 0 792 1872;" xml:space="preserve">
<style type="text/css">
	.st0{fill:#445B55;}
</style>
<polyline class="st0" points="39.4,775.4 58.7,792.7 33,792.7 58.7,806.3 32.2,808 69.9,832.1 59.2,829.9 76.1,853.5 58.7,847.2 
	80.6,880.2 45.7,880.2 92.7,895.1 76.1,898.2 96.5,927.9 80.6,922.8 101.8,960.2 84.4,953.6 101.8,985.5 84.4,974.2 101.8,999.3 
	29.4,995.2 "/>
<polyline class="st0" points="92.2,761.5 114.5,779.6 84.8,779.6 114.5,793.7 83.9,795.5 127.4,820.7 115.1,818.3 134.6,843 
	114.5,836.4 139.8,870.8 99.5,870.8 153.8,886.4 134.6,889.6 158.1,920.6 139.8,915.3 164.2,954.3 144.2,947.4 164.2,980.6 
	144.2,968.8 164.2,995.1 80.6,990.8 "/>
<polyline class="st0" points="191.6,707.1 210.9,725.2 185.3,725.2 210.9,739.3 184.5,741.1 222.1,766.3 211.5,763.9 228.3,788.6 
	210.9,782 232.9,816.4 198,816.4 245,832 228.3,835.2 248.7,866.2 232.9,860.9 254,899.9 236.7,893 254,926.2 236.7,914.4 
	254,940.7 181.6,936.4 "/>
<polygon class="st0" points="0,1044 50.6,1047 33.3,1020.8 50.6,1032.5 33.3,999.3 34.8,951.3 0,951.3 "/>
<polyline class="st0" points="138,734.8 157.3,752.9 131.6,752.9 157.3,767 130.9,768.8 168.5,794 157.9,791.7 174.7,816.3 
	157.3,809.7 179.2,844.1 144.3,844.1 191.4,859.7 174.7,862.9 195.1,893.9 179.2,888.6 200.4,927.6 183.1,920.7 200.4,953.9 
	183.1,942.1 200.4,968.4 128,964.1 "/>
<polyline class="st0" points="281.5,602.3 300.7,620.4 275.1,620.4 300.7,634.5 274.3,636.3 311.9,661.4 301.3,659.1 318.1,683.7 
	300.7,677.1 322.7,711.6 287.8,711.6 334.8,727.2 318.1,730.3 338.5,761.4 322.7,756 343.8,795 326.5,788.2 343.8,821.4 
	326.5,809.6 343.8,835.8 271.4,831.5 "/>
<path class="st0" d="M318.1,789.2l-45.7-227.8l-15.5,32.9l-28.2-90.6l-31.2,134.7l-7.8-224.9l-29.6,77.9l-15.5-52.2l-37.1,203.8
	V485.6l-21.5,58.3L67.8,421.7L37.8,554.3L26.6,372.8L0,458.7V1021C0,1021,295.2,856.3,318.1,789.2z"/>
<polyline class="st0" points="238.7,650 258,668.1 232.3,668.1 258,682.2 231.6,684 269.2,709.2 258.6,706.8 275.4,731.4 258,724.8 
	279.9,759.3 245,759.3 292.1,774.9 275.4,778 295.8,809.1 279.9,803.7 301.1,842.8 283.8,835.9 301.1,869.1 283.8,857.3 
	301.1,883.5 228.7,879.2 "/>
</svg>
