<?xml version="1.0" encoding="utf-8"?>
<!-- Generator: Adobe Illustrator 25.0.0, SVG Export Plug-In . SVG Version: 6.00 Build 0)  -->
<svg version="1.1" id="Layer_1" xmlns="http://www.w3.org/2000/svg" xmlns:xlink="http://www.w3.org/1999/xlink" x="0px" y="0px"
	 viewBox="0 0 792 1224" style="enable-background:new 0 0 792 1224;" xml:space="preserve">
<style type="text/css">
	.st0{fill:url(#SVGID_1_);}
	.st1{fill:#446D55;}
	.st2{fill:url(#SVGID_2_);}
	.st3{clip-path:url(#SVGID_4_);}
	.st4{opacity:0.63;fill:#3C4E65;enable-background:new    ;}
	.st5{opacity:0.63;fill:#5F5B73;enable-background:new    ;}
	.st6{opacity:0.63;fill:#6C799D;enable-background:new    ;}
	.st7{opacity:0.63;fill:#C8C4C9;enable-background:new    ;}
	.st8{opacity:0.63;fill:#5F5B55;enable-background:new    ;}
	.st9{fill:#8ECAED;}
	.st10{fill:#86CAED;}
	.st11{fill:#89B8E0;}
	.st12{fill:#C8BAD0;}
	.st13{fill:#BFBAD0;}
	.st14{fill:#E4BAD0;}
	.st15{fill:#7DCAED;}
</style>
<g>
	
		<linearGradient id="SVGID_1_" gradientUnits="userSpaceOnUse" x1="396.005" y1="1054.61" x2="396.005" y2="1872.29" gradientTransform="matrix(1 0 0 -1 0 1872)">
		<stop  offset="0" style="stop-color:#F59199"/>
		<stop  offset="0.2" style="stop-color:#E999A5"/>
		<stop  offset="0.58" style="stop-color:#C8AEC3"/>
		<stop  offset="1" style="stop-color:#9BCAED"/>
	</linearGradient>
	<rect x="-0.1" y="-0.3" class="st0" width="792.3" height="817.7"/>
	<rect y="575.2" class="st1" width="792" height="648.8"/>
</g>
<g>
	<g>
		
			<linearGradient id="SVGID_2_" gradientUnits="userSpaceOnUse" x1="396" y1="1296.8501" x2="396" y2="648" gradientTransform="matrix(1 0 0 -1 0 1872)">
			<stop  offset="0" style="stop-color:#F59199"/>
			<stop  offset="7.000000e-02" style="stop-color:#E49CA9"/>
			<stop  offset="0.2" style="stop-color:#CAACC1"/>
			<stop  offset="0.34" style="stop-color:#B5BAD5"/>
			<stop  offset="0.5" style="stop-color:#A6C3E3"/>
			<stop  offset="0.7" style="stop-color:#9EC8EB"/>
			<stop  offset="1" style="stop-color:#9BCAED"/>
		</linearGradient>
		<path class="st2" d="M0,1034c0,0,351.1-202.8,337.3-246.9s-87.2-63.5-86.1-110.6s53.4-100.7,192.5-101.4c0,0-100,42.5-95.8,78.8
			s197.6,149.5,197,189.2s-55.8,155.1-18.9,171.2S792,1076,792,1076v148H0V1034z"/>
		<g>
			<defs>
				<path id="SVGID_3_" d="M0,1034c0,0,351.1-202.8,337.3-246.9s-87.2-63.5-86.1-110.6s53.4-100.7,192.5-101.4
					c0,0-100,42.5-95.8,78.8s197.6,149.5,197,189.2s-55.8,155.1-18.9,171.2S792,1076,792,1076v148H0V1034z"/>
			</defs>
			<clipPath id="SVGID_4_">
				<use xlink:href="#SVGID_3_"  style="overflow:visible;"/>
			</clipPath>
			<g class="st3">
				<path class="st4" d="M318.1,805.8l-7.9,103l-24.7,3L270.7,961l-63.5-13.7l36,71.4l-50.3,1.5l-7.7,27.8l-84.3-28.9l31.6,45.5
					l-36.9,0.6l3.3,50.1l-61.7-14.1l23.2,61.6l-48.4-3.2l-112.8-162.8C-100.9,996.9,277.9,805,318.1,805.8z"/>
				<path class="st4" d="M522,1006l81.2,104.1l24.9-23.8l43.3,57.7l32.8-42.2l23.2,65.9l37.7-30.9l20.6,19.7l36.4-22.1V988.6
					C822.1,988.6,505,996.6,522,1006z"/>
				<path class="st5" d="M590.3,859.1l-37.9,58.2l-19.8-38.8l-28,2.2l-3.9-45.4l-21.4-0.4l-5.6-46.2l-17.2,4.2l-13.1-26.8l-9.3,8.4
					l-12.2-25l-19.9-12.9l-13.1-37.1l-25.2,8.2l-12.8-46C350.9,661.8,402.1,689.1,590.3,859.1z"/>
				<path class="st6" d="M-1.3,636.5l42.9,14c0,0,30.4,13,30.4,21.2l53.1,17.2l35.9,2.7l29.6,15.4l13.1-4.2l17.5-20l19,12.5
					l36.7-19.6l49.9-4l60.2-12.4l41.2-27.2l57-7l75-16.5l38.6-24.7l73.2-8.4H-1.3V636.5z"/>
				<polygon class="st7" points="190.6,707 190.6,689.9 177.6,678.4 204.1,657.7 238.4,647.8 238.4,639.4 223.7,622.3 266.8,605.5 
					288.3,585.3 353,575.5 672.1,575.5 598.8,583.9 560.2,608.6 485.2,625.1 428.2,632 387,659.2 326.8,671.8 276.9,675.7 
					240.2,695.4 221.2,682.8 203.7,702.8 				"/>
				<path class="st7" d="M90.3,651.3c15.2,0.6,12.1,20.7,12.1,20.7l34.6,11.4l39.8,2.1l-31.4-4.8l-27.2-9.9L90.3,651.3z"/>
				<polygon class="st7" points="204.8,650.8 216.9,646 220.1,631.8 206.3,635.6 212.4,642.6 				"/>
				<polygon class="st6" points="247.9,671.2 298.2,667 343.2,657.4 366.2,638.5 333.8,652.3 295,662.5 				"/>
				<polygon class="st6" points="414.7,624.1 466,618.1 525.6,602.5 540.3,595 498.4,598.9 470.2,613 				"/>
				<polygon class="st6" points="197.5,685.4 209.9,680.2 209.9,673.6 				"/>
				<path class="st8" d="M361.4,578.5l-1.1,12.7l-12.8,1.8l-3.3,17.3l-16-5.3l-8.8,12.9l-7.6-0.5l-7.5,6.7l-13.3-1l4.8,21l-21.8-9.2
					l1.2-26.1c0,0,39.4-8.1,97.2-41.5"/>
			</g>
		</g>
	</g>
	<path class="st9" d="M38.7,1058.2c0,0,40.5-2,57.6-14.2s38.8-7.7,38.8-7.7s23.7,6.9,33.6,5.3s25.3-3.6,25.3-3.6s22.4-0.4,37.9,10.9
		s44.4,9.3,44.4,9.3s-36.2,4.4-51,3.6s-40.1,4.9-40.1,4.9c-9.7-0.1-19.2-2.6-27.6-7.3c-13.5-7.7-39.5,1.6-39.5,1.6s-14.5,4-26.7-0.8
		S38.7,1058.2,38.7,1058.2z"/>
	<path class="st10" d="M479.1,1108.7c0,0,28.5-1.2,40.6-8.1s27.4-4.4,27.4-4.4s16.7,3.9,23.7,3s17.9-2.1,17.9-2.1s15.8-0.2,26.7,6.3
		s31.3,5.3,31.3,5.3s-25.5,2.6-36,2.1s-28.3,2.8-28.3,2.8c-6.7-0.1-13.3-1.5-19.5-4.2c-9.5-4.4-27.8,0.9-27.8,0.9
		s-10.2,2.3-18.8-0.5S479.1,1108.7,479.1,1108.7z"/>
	<path class="st11" d="M128.2,945.3c0,0,46.6-1.1,66.2-7.7s44.7-4.2,44.7-4.2s27.3,3.7,38.6,2.9s29.2-2,29.2-2s25.7-0.2,43.5,5.9
		s51.1,5,51.1,5s-41.6,2.4-58.7,2s-46.2,2.6-46.2,2.6c-10.7,0-21.4-1.3-31.8-3.8c-15.5-4.2-45.4,0.9-45.4,0.9s-16.7,2.2-30.7-0.4
		S128.2,945.3,128.2,945.3z"/>
	<path class="st11" d="M330.4,1019.3c0,0,45.8,1.7,65.2,12s44,6.5,44,6.5s26.8-5.8,38-4.5s28.7,3.1,28.7,3.1s25.3,0.3,42.8-9.3
		s50.3-7.9,50.3-7.9s-41-3.8-57.8-3.1s-45.5-4.1-45.5-4.1s-16-0.3-31.3,6.2s-44.7-1.4-44.7-1.4s-16.4-3.4-30.2,0.7
		S330.4,1019.3,330.4,1019.3z"/>
	<path class="st12" d="M274.5,787.6c0,0,18.8-0.8,26.7-5.3s18-2.9,18-2.9s11,2.6,15.6,2s11.8-1.4,11.8-1.4s10.4-0.2,17.6,4.1
		s20.6,3.5,20.6,3.5s-16.8,1.7-23.7,1.4s-18.6,1.8-18.6,1.8c-4.4-0.1-8.8-1-12.8-2.8c-6.3-2.9-18.3,0.6-18.3,0.6s-6.7,1.5-12.4-0.3
		S274.5,787.6,274.5,787.6z"/>
	<path class="st13" d="M395.6,823.5c0,0,25.1,0.8,35.8,5.3s24.1,2.9,24.1,2.9s14.7-2.6,20.9-2s15.7,1.4,15.7,1.4s13.9,0.2,23.5-4.1
		c9.6-4.3,27.6-3.5,27.6-3.5s-22.5-1.7-31.7-1.4s-24.9-1.8-24.9-1.8c-5.8,0-11.6,1-17.2,2.8c-8.4,2.9-24.5-0.6-24.5-0.6
		s-9-1.5-16.6,0.3S395.6,823.5,395.6,823.5z"/>
	<path class="st14" d="M266.4,701.6c0,0,18.8-1.3,26.7-9.3c4.7-4.7,11.5-6.6,18-5.1c0,0,11,4.5,15.6,3.5s11.8-2.4,11.8-2.4
		s10.4-0.3,17.6,7.2s20.6,6.1,20.6,6.1s-16.8,2.9-23.7,2.4s-18.6,3.2-18.6,3.2c-4.7-0.1-9.2-1.8-12.8-4.8
		c-6.3-5.1-18.3,1.1-18.3,1.1s-6.7,2.7-12.4-0.5S266.4,701.6,266.4,701.6z"/>
	<path class="st12" d="M363.1,755.8c0,0,15.3-0.6,21.8-4.3s14.7-2.4,14.7-2.4s9,2.1,12.7,1.6s9.6-1.1,9.6-1.1s8.5-0.1,14.3,3.4
		s16.8,2.9,16.8,2.9s-13.7,1.4-19.3,1.1s-15.2,1.5-15.2,1.5c-3.6,0-7.2-0.8-10.5-2.2c-5.1-2.4-14.9,0.5-14.9,0.5s-5.5,1.2-10.1-0.2
		S363.1,755.8,363.1,755.8z"/>
	<path class="st15" d="M58.8,1178.2c0,0,49.7,3,70.8,21.2s47.7,11.6,47.7,11.6s29.1-10.3,41.3-7.9s31.1,5.5,31.1,5.5
		s27.5,0.6,46.5-16.4s54.6-14,54.6-14s-44.5-6.7-62.7-5.4s-49.4-7.3-49.4-7.3c-12.2,0.2-24,4-34,10.9c-16.6,11.5-48.6-2.4-48.6-2.4
		s-17.8-6.1-32.8,1.2S58.8,1178.2,58.8,1178.2z"/>
</g>
</svg>
