<svg id="Text" xmlns="http://www.w3.org/2000/svg" viewBox="0 0 792 1872"><defs><style>.cls-1{font-size:14px;font-family:HelveticaNeue-Medium, Helvetica Neue;font-weight:500;}.cls-1,.cls-2,.cls-3{fill:#fff;}.cls-3{font-size:12px;font-family:HelveticaNeue, Helvetica Neue;}.cls-4{letter-spacing:-0.02em;}</style></defs><text class="cls-1" transform="translate(339.98 1337.95)">Horseback Ridng</text><text class="cls-1" transform="translate(106 1337.95)">Boat Cruies</text><text class="cls-1" transform="translate(501.64 1337.95)">Hiking</text><text class="cls-1" transform="translate(246.79 1337.95)">Golfing</text><text class="cls-1" transform="translate(624.66 1337.95)">Fishing</text><path class="cls-2" d="M640,1443.1v7a8.53,8.53,0,0,0,5.29-1.27c1.62-.94,3.19-2,4.78-2.94a15.81,15.81,0,0,1,5.93-2.39,11.68,11.68,0,0,1,7.14,1.25c2.52,1.27,5,2.65,7.44,4a9.5,9.5,0,0,0,9.66.12,3.52,3.52,0,0,1,3,.54,2.25,2.25,0,0,1-.42,2.36,13.48,13.48,0,0,1-14.09.22c-2.23-1.24-4.45-2.47-6.69-3.67a8.59,8.59,0,0,0-9.09.22c-1.71,1-3.38,2.12-5.08,3.16a15.3,15.3,0,0,1-8.14,2.23c-8.6,0-17.2,0-25.8,0h-1.19v-22.71h27.23v8.07a6.77,6.77,0,0,0,3.65-.5A34.1,34.1,0,0,0,647,1437c1.44-.84,2.8-1.78,4.24-2.6a11.88,11.88,0,0,1,11.79-.44q3.58,1.79,7,3.81c3.82,2.24,7.52,2,11.22-.23.59-.36,1.2-.69,2-1.12,0,1.45,0,2.73,0,4,0,.21-.34.47-.58.61a13.48,13.48,0,0,1-14.09.16c-2.2-1.22-4.4-2.42-6.61-3.63a8.66,8.66,0,0,0-9.25.28c-1.25.78-2.5,1.56-3.74,2.36A15.33,15.33,0,0,1,640,1443.1Z"/><path class="cls-2" d="M645.72,1400.1c.56-1.54,1-3.06,1.62-4.47,2.53-5.51,6.66-9.07,12.75-10.14a21.52,21.52,0,0,1,3.11-.27,1.87,1.87,0,0,1,2.17,1.55q3,8.89,5.89,17.78l3.5,10.6c-1.28,0-2.45,0-3.63,0-.21,0-.47-.49-.57-.79q-2.14-6.4-4.25-12.81-1.86-5.67-3.73-11.34c-.42-1.28-.42-1.26-1.73-1.05-4.81.78-8,3.59-10,7.91a16,16,0,0,0-1.54,7.58c.05,1,0,1.94,0,3h-3.65c-2.48,0-5,0-7.46,0a4,4,0,0,1-1.64-.43c-1.36-.68-2.69-1.45-4.17-2.25v22.38H619.22v-35.65l6.19.41c2.08.15,4.17.29,6.24.5a2.18,2.18,0,0,1,1.25.59c2.18,2.11,4.3,4.29,6.48,6.4a2.07,2.07,0,0,0,1.27.53C642.36,1400.14,644.08,1400.1,645.72,1400.1Z"/><path class="cls-2" d="M628.63,1377.28a5.62,5.62,0,1,1-5.73,5.57A5.63,5.63,0,0,1,628.63,1377.28Z"/><path class="cls-2" d="M676.61,1433.35c-.11-1.29-.17-2.39-.32-3.48a1,1,0,0,0-.58-.71c-3.66-1-5.69-5.35-5.28-8.61a2.29,2.29,0,0,1,.07-.36c.51-2.54.25-2.56,2.8-1.65a8,8,0,0,1,5.57,6.79,4.93,4.93,0,0,1-.13,1.91.79.79,0,0,0,.43,1c.92.55,1.81,1.14,2.87,1.82Z"/><path class="cls-2" d="M521.9,1454H494.84a8.23,8.23,0,0,1-.86,0,2.19,2.19,0,0,1-1.85-3.26c.46-.9,1-1.77,1.45-2.65,1.32-2.42,2.67-4.83,4-7.26a2.32,2.32,0,0,1,2.54-1.33c3.16.37,6.32.71,9.47,1.13a2.55,2.55,0,0,0,2.62-1.07c1.39-1.83,2.83-3.62,4.19-5.47a3.12,3.12,0,0,1,2.77-1.37c2.82,0,5.63,0,8.45-.06a3.29,3.29,0,0,0,1.12-.23c2.66-1.12,5.32-2.26,8-3.4,1.65-.7,2.64-.3,3.33,1.35,1,2.36,1.94,4.71,2.93,7.06a7.65,7.65,0,0,0,.72,1.28q4,5.77,8,11.54a2.21,2.21,0,0,1-.55,3.36,3.33,3.33,0,0,1-1.62.37c-8.12,0-16.24,0-24.36,0Z"/><path class="cls-2" d="M520.37,1407.72c-.13,1.27-.29,2.55-.37,3.83,0,.19.31.48.55.61a17.48,17.48,0,0,1,4.67,3.66,4.65,4.65,0,0,1,1.24,3.18c-.11,3.78-.3,7.56-.46,11.39h-6.52c.14-1.35.3-2.67.41-4,.15-2.05.25-4.12.4-6.17a1.15,1.15,0,0,0-.57-1.17l-4.84-2.93c-.22,1.5-.5,2.75-.58,4-.36,5.84-2.58,11.11-4.93,16.34-.71,1.55-.71,1.57-2.44,1.39s-3.17-.39-4.83-.59c.11-.29.18-.5.27-.7,1-2.27,1.94-4.55,3-6.8a31,31,0,0,0,2.55-9.74c.51-4.69,1.18-9.37,1.75-14,.42-3.45.81-6.92,1.18-10.38a2.7,2.7,0,0,1,3.13-2.72c1.14,0,2.28.1,3.41.06a4.65,4.65,0,0,1,4.8,3.1c.88,2.08,1.55,4.25,2.31,6.39a2.52,2.52,0,0,1,.2.66c.17,1.56,1.15,2.1,2.58,2.26,1.62.18,3.23.45,4.82.75a2.68,2.68,0,0,1-.41,5.28,9.69,9.69,0,0,1-2.08-.17c-1.83-.32-3.66-.65-5.47-1A5.47,5.47,0,0,1,520.37,1407.72Z"/><path class="cls-2" d="M509,1394.88c-.32,3.07-.66,6.27-1,9.48-.22,2.07-.43,4.15-.68,6.22a2.71,2.71,0,0,1-3,2.51c-1.14-.06-2.27-.17-3.39-.34-1.66-.25-2.53-1.68-2.31-3.61.26-2.33.5-4.67.75-7,.3-2.72.58-5.43.9-8.15a2.77,2.77,0,0,1,3.25-2.54c.93.11,1.85.19,2.78.29A2.83,2.83,0,0,1,509,1394.88Z"/><path class="cls-2" d="M517,1378.51a6.34,6.34,0,0,1-.08,12.68,6.34,6.34,0,1,1,.08-12.68Z"/><path class="cls-2" d="M411.33,1399.89c.55-.86,1-1.66,1.55-2.42,2.1-3,4.2-6,6.37-8.9.78-1.06,1.41-1,2.06.17a11.08,11.08,0,0,1,1.11,2.55,2.27,2.27,0,0,0,1.06,1.39,58,58,0,0,1,12.69,10.84,31.69,31.69,0,0,1,2.11,2.91c.8,1.23.06,3.78-1.29,4.34a1.78,1.78,0,0,1-1.39-.13,6.55,6.55,0,0,0-3.77-.89,22.78,22.78,0,0,1-3.5-.15,5.68,5.68,0,0,1-3.94-2.21c-.17-.22-.36-.42-.55-.63l-.26,0c-.11,1-.25,2-.34,3-.35,3.78-.45,7.61-1.12,11.33a51.9,51.9,0,0,1-2.68,8.4c-.93,2.61-2.08,5.15-3,7.76a5.48,5.48,0,0,0-.26,2.63c.69,3.91,1.5,7.8,2.26,11.7.3,1.54-.36,2.34-1.95,2.36-2,0-2.22-.16-2.9-2-1.3-3.5-2.5-7-3.95-10.48a10.23,10.23,0,0,1-.57-6.31c.28-1.33.33-2.71.5-4.24-7.66,1.24-15.17,1.51-22.63-.87a20.66,20.66,0,0,1-.55,2.13,40.11,40.11,0,0,1-1.68,4.13,4.05,4.05,0,0,0-.34,3.12q1.59,5.6,3.16,11.21c.46,1.64,0,2.41-1.7,2.72-3,.56-3,.56-4.18-2.3s-2.2-5.73-3.44-8.53c-1.73-3.91-2.25-8.08-2.85-12.24a2.79,2.79,0,0,0-1-1.78,18.68,18.68,0,0,1-3.21-4,15.28,15.28,0,0,1-2.21-9.64,4,4,0,0,0-3.06,2.49,39.21,39.21,0,0,0-1.26,4.82,12,12,0,0,1-2.3,5.51,8.14,8.14,0,0,1-3.73,2.52,3.32,3.32,0,0,1-3.68-1,6.23,6.23,0,0,1-.82-1.14c-1.05-1.85-1-2,.53-3.48a22.68,22.68,0,0,0,4.73-7.11,13.64,13.64,0,0,0,.57-1.37c1.29-3.8,4.21-5.35,7.95-5.47a11.57,11.57,0,0,0,5.45-1.32c3.54-1.91,7.54-1.86,11.48-1.56a.92.92,0,0,1,.56.34,5.66,5.66,0,0,0,2.92,2l9.36,2.91c.25.07.49.17.9.31-.95,3.25-1.87,6.47-2.82,9.68a5,5,0,0,0,.86,4.87,4.54,4.54,0,0,0,4.56,1.63,4.67,4.67,0,0,0,3.73-3.45c.9-3,1.79-6.05,2.54-9.11a39.51,39.51,0,0,0,.86-5.53,6.34,6.34,0,0,0-1-4.1.9.9,0,0,1,0-.75c.6-1.1,1.25-2.17,2-3.42-.6.06-1.07.15-1.54.15-1.6,0-3.21.06-4.8-.07a3.1,3.1,0,0,1-2.92-2.5c-.14-.55-.35-1.08-.59-1.78l-2.57,6c.82.24,1.6.44,2.36.71,1.59.57,3.18,1.17,4.75,1.78a2.93,2.93,0,0,1,2.07,3,26.8,26.8,0,0,1-.63,5.37c-.77,3.2-1.74,6.36-2.69,9.52a2.64,2.64,0,1,1-5-1.58q1.51-5.62,3-11.25a7.35,7.35,0,0,0,.11-.88c-2.35-.69-4.7-1.35-7-2.06-1.75-.54-3.51-1.09-5.23-1.73a3.06,3.06,0,0,1-2-3.78,26.8,26.8,0,0,1,7.44-13.64c2.7-2.73,5.54-1.63,7.79.2a2.42,2.42,0,0,1,.63,1.3c.45,2.14.88,4.29,1.25,6.45.14.79.55,1,1.26.93,1.22-.1,2.46-.1,3.66-.3A2.62,2.62,0,0,1,411.33,1399.89Z"/><path class="cls-2" d="M370.72,1428.33c.73.66,1.43,1.27,2.1,1.92a1.09,1.09,0,0,1,.26.61q.69,3.8,1.33,7.59a1.53,1.53,0,0,1-.05.6l-3.24,12.18c-.43,1.63-1.05,2-2.67,1.6l-1.45-.36c-1.36-.36-1.7-.94-1.43-2.4.57-3.07,1.17-6.13,1.69-9.21a57,57,0,0,1,3.2-11.9C370.55,1428.72,370.66,1428.49,370.72,1428.33Z"/><path class="cls-2" d="M420.93,1432a13.56,13.56,0,0,1,2.8,4c1.74,4.43,3.59,8.81,5.4,13.21.69,1.69.29,2.52-1.45,3l-1.11.27a1.64,1.64,0,0,1-2-.78c-1.95-3.36-3.94-6.7-5.76-10.13a4.28,4.28,0,0,1-.2-4C419.49,1435.82,420.14,1434,420.93,1432Z"/><path class="cls-2" d="M397.76,1383.41a5.47,5.47,0,1,1,5.36,5.55A5.44,5.44,0,0,1,397.76,1383.41Z"/><path class="cls-2" d="M297.28,1397.2l-12.76,5.48c-6.17,2.65-12.33,5.31-18.51,7.93a1,1,0,0,0-.69,1.05q0,14.34,0,28.69a2.31,2.31,0,0,1-3.07,2.43,2.37,2.37,0,0,1-1.54-2.47q0-5.26,0-10.53,0-24,0-47.9a6,6,0,0,1,.07-1.12,2.24,2.24,0,0,1,2.27-1.87,2.29,2.29,0,0,1,2.24,1.93,1.51,1.51,0,0,1,0,.56c-.34,1.62.44,2.3,1.9,2.92,9.76,4.1,19.48,8.32,29.21,12.5C296.67,1396.9,296.9,1397,297.28,1397.2Z"/><path class="cls-2" d="M256.21,1438.94c-.22,2.68.26,5,2.17,6.71a6.66,6.66,0,0,0,4.28,1.81,6.78,6.78,0,0,0,5.82-2.66c1.5-1.85,1.46-4.06,1.39-6.4,1.89.24,3.67.43,5.43.71a30.19,30.19,0,0,1,8.08,2.27,15.83,15.83,0,0,1,3.27,2c2.07,1.69,2,3.75.06,5.53a13.62,13.62,0,0,1-4.69,2.57,49.3,49.3,0,0,1-16.83,2.48,48,48,0,0,1-16.34-2.49,31.35,31.35,0,0,1-3.6-1.74,5.08,5.08,0,0,1-1-.72c-2.15-1.88-2.14-3.92.05-5.76a17.52,17.52,0,0,1,6.79-3.15C252.74,1439.65,254.39,1439.35,256.21,1438.94Z"/><path class="cls-2" d="M292.73,1433.78a4.58,4.58,0,0,1,0,9.15,4.62,4.62,0,0,1-4.59-4.53A4.56,4.56,0,0,1,292.73,1433.78Z"/><path class="cls-2" d="M118.09,1413.69h18.74v-9.52c-1.81,1.82-3.39,3.49-5.08,5.06a5.19,5.19,0,0,1-2.21,1.22,3.14,3.14,0,0,1-2.87-5.11c3.15-3.25,6.32-6.47,9.59-9.59a4.87,4.87,0,0,1,3.75-1.31,51.42,51.42,0,0,0,6.33,0,6.07,6.07,0,0,1,4.83,2c2.67,2.67,5.27,5.42,8,8,2.07,1.93,1.58,4.09.51,5.14-1.4,1.36-3.34,1.15-5-.54q-2.28-2.3-4.58-4.57a1.55,1.55,0,0,0-.31-.09v9.26h19.58c.06.2.12.29.1.35a59.48,59.48,0,0,1-7.13,14.86,19.86,19.86,0,0,1-1.92,2.27,6.09,6.09,0,0,1-4.67,1.92q-11.81-.09-23.62,0a5.38,5.38,0,0,1-4.63-2,64.91,64.91,0,0,1-5.18-7.85C120.72,1420.3,119.57,1417.09,118.09,1413.69Z"/><path class="cls-2" d="M126.35,1437.4a5.32,5.32,0,0,0-3.87,1.7c-.91.91-1.76,1.88-2.72,2.73a8.32,8.32,0,0,1-11.4-.1c-.88-.81-1.69-1.71-2.53-2.57a5.6,5.6,0,0,0-3.72-1.77c-1.26-.1-1.88-.74-1.79-1.74s.86-1.52,2.09-1.45a8.49,8.49,0,0,1,5.61,2.61c.88.88,1.7,1.83,2.63,2.65a5.11,5.11,0,0,0,7,0c.89-.8,1.68-1.72,2.54-2.56a8.39,8.39,0,0,1,12.23-.11c.78.74,1.47,1.57,2.25,2.32a5.26,5.26,0,0,0,7.84,0c.77-.74,1.47-1.58,2.25-2.32a8.39,8.39,0,0,1,12.14,0c.87.83,1.65,1.76,2.53,2.57a5.16,5.16,0,0,0,7.29,0c.94-.87,1.77-1.86,2.71-2.73a8.3,8.3,0,0,1,11.76.07c.72.69,1.4,1.42,2.07,2.15a5.6,5.6,0,0,0,4.23,2,1.46,1.46,0,0,1,1.6,1.54,1.51,1.51,0,0,1-1.65,1.64,7.54,7.54,0,0,1-5.36-2c-1-.89-1.87-1.88-2.81-2.82-2.47-2.47-5.51-2.47-8,0-.71.7-1.37,1.45-2.08,2.14a8.38,8.38,0,0,1-12.23,0c-.72-.68-1.37-1.44-2.07-2.15-2.51-2.52-5.57-2.53-8.1,0-.74.73-1.42,1.52-2.17,2.23a8.38,8.38,0,0,1-12.14-.08A23.7,23.7,0,0,0,130,1439a28.66,28.66,0,0,0-3.5-1.89Z"/><path class="cls-2" d="M138.58,1453.89a8,8,0,0,1-5.91-2.39c-.84-.81-1.6-1.69-2.44-2.5a5.22,5.22,0,0,0-7.74,0c-.86.83-1.65,1.75-2.53,2.56a8.34,8.34,0,0,1-11.78-.09c-.66-.62-1.28-1.29-1.9-2a5.93,5.93,0,0,0-4.41-2.22,1.45,1.45,0,0,1-1.54-1.6,1.51,1.51,0,0,1,1.69-1.59,7.73,7.73,0,0,1,5.24,2c1,.88,1.87,1.87,2.82,2.8,2.57,2.52,5.55,2.52,8.11,0,.79-.79,1.53-1.64,2.35-2.39a8.31,8.31,0,0,1,11.49-.13c.87.76,1.62,1.65,2.44,2.47,2.61,2.6,5.6,2.61,8.2,0,.74-.73,1.41-1.52,2.17-2.23a8.36,8.36,0,0,1,11.95,0c.87.82,1.65,1.74,2.53,2.56a5.19,5.19,0,0,0,7.38.08c.77-.7,1.44-1.5,2.17-2.23,3.89-3.91,8.86-3.92,12.75,0,.61.62,1.2,1.26,1.8,1.9a5.33,5.33,0,0,0,3.92,1.86,1.55,1.55,0,0,1,1.76,1.66c0,.95-.74,1.52-1.89,1.52a7.78,7.78,0,0,1-5.5-2.25c-1-.92-1.83-1.93-2.8-2.83a5.09,5.09,0,0,0-7.26,0c-.83.76-1.56,1.61-2.36,2.4-3.76,3.7-8.72,3.69-12.49,0-.74-.73-1.42-1.52-2.17-2.23a5.2,5.2,0,0,0-7.57,0c-1,1-1.95,2-3,3A7.66,7.66,0,0,1,138.58,1453.89Z"/><path class="cls-2" d="M191.94,1426l-6.81,6.82c-.56-.62-1.22-1.3-1.82-2a49.29,49.29,0,0,1-6.69-10.59c-.18-.37,0-.9-.11-1.33a2.1,2.1,0,0,0-.54-1q-6.21-6.27-12.47-12.51c-.14-.15-.36-.27-.42-.45a12.61,12.61,0,0,1-.28-1.25c.39.11.89.1,1.14.35,3,2.94,5.94,5.91,8.89,8.88,1.58,1.59,3.14,3.19,4.71,4.79l.14-.43a6.44,6.44,0,0,1,1.89.28A46.38,46.38,0,0,1,191.94,1426Z"/><path class="cls-2" d="M111.32,1418.48c.05.63.26,1.15.1,1.5a46.41,46.41,0,0,1-8.51,12.77s-.14.07-.09,0l-6.76-6.8a16.12,16.12,0,0,1,2.11-1.87c3.42-2.24,6.89-4.42,10.37-6.56a4.35,4.35,0,0,1,1.61-.19l.08.32,8.69-8.7c1.64-1.65,3.26-3.31,4.94-4.91.28-.28.81-.31,1.22-.45-.11.44-.07,1-.35,1.32q-6.51,6.6-13.07,13.14C111.48,1418.28,111.33,1418.47,111.32,1418.48Z"/><path class="cls-2" d="M149.7,1384.88a6.39,6.39,0,1,1-6.45-6.46A6.38,6.38,0,0,1,149.7,1384.88Z"/><text class="cls-3" transform="translate(92.62 1485.38)">Set sail on a boat <tspan x="0" y="14.4">cruise.</tspan></text><text class="cls-3" transform="translate(219.36 1485.38)">Relax with a game <tspan x="0" y="14.4">of golfing. </tspan></text><text class="cls-3" transform="translate(346.85 1485.38)">Hop on for some <tspan x="0" y="14.4">horseback riding </tspan><tspan x="0" y="28.8">th</tspan><tspan class="cls-4" x="10.45" y="28.8">r</tspan><tspan x="14.23" y="28.8">ough the ranch.</tspan></text><text class="cls-3" transform="translate(474.04 1485.38)">Gear up for a hike <tspan x="0" y="14.4">th</tspan><tspan class="cls-4" x="10.45" y="14.4">r</tspan><tspan x="14.23" y="14.4">ough the </tspan><tspan class="cls-4" x="64.92" y="14.4">r</tspan><tspan x="68.7" y="14.4">esort.</tspan></text><text class="cls-3" transform="translate(609.35 1485.38)">Seat back and <tspan class="cls-4" x="0" y="14.4">r</tspan><tspan x="3.78" y="14.4">elax with some </tspan><tspan x="0" y="28.8">fishing.</tspan></text></svg>